<?xml version="1.0" encoding="utf-8"?>
<!-- Generator: Adobe Illustrator 24.3.0, SVG Export Plug-In . SVG Version: 6.00 Build 0)  -->
<svg version="1.1" id="Layer_1" xmlns="http://www.w3.org/2000/svg" xmlns:xlink="http://www.w3.org/1999/xlink" x="0px" y="0px"
	 viewBox="0 0 481.89 311.81" style="enable-background:new 0 0 481.89 311.81;" xml:space="preserve">
<style type="text/css">
	.st0{fill:#F15A24;stroke:#000000;stroke-width:5;stroke-miterlimit:10;}
	.st1{fill:#FFFFFF;stroke:#000000;stroke-width:5;stroke-miterlimit:10;}
</style>
<g>
	<line class="st0" x1="463.28" y1="59.7" x2="408.23" y2="247.09"/>
	<polygon class="st0" points="421.2,250.64 395.27,243.54 450.32,56.15 476.24,63.26 	"/>
</g>
<g>
	<polyline class="st0" points="68.19,24.83 41.36,24.83 41.36,53.74 68.19,53.74 9.36,53.74 	"/>
	<polygon class="st0" points="68.19,66.76 9.36,66.76 9.36,40.73 27.88,40.73 27.88,11.82 68.19,11.82 68.19,37.85 54.83,37.85 
		54.83,40.73 68.19,40.73 	"/>
</g>
<g>
	<polygon class="st0" points="250.4,232.24 75.76,232.24 31.56,92.44 44.45,88.64 57.34,84.83 95.71,206.21 212.11,206.21 
		188.03,141.33 173.06,161.52 162.1,153.93 151.15,146.35 196.04,85.79 	"/>
</g>
<g>
	<path class="st1" d="M187.8,259.42h-10.11c-8.04,0-14.55-6.52-14.55-14.55v-8.78c0-8.04,6.52-14.55,14.55-14.55h10.11
		c8.04,0,14.55,6.52,14.55,14.55v8.78C202.36,252.91,195.84,259.42,187.8,259.42z"/>
	<path class="st1" d="M182.75,261.37c-11.93,0-21.63-9.37-21.63-20.89c0-11.52,9.7-20.89,21.63-20.89
		c11.93,0,21.63,9.37,21.63,20.89C204.38,252,194.68,261.37,182.75,261.37z M182.75,223.49c-9.7,0-17.59,7.62-17.59,16.99
		c0,9.37,7.89,16.99,17.59,16.99c9.7,0,17.59-7.62,17.59-16.99C200.34,231.11,192.45,223.49,182.75,223.49z"/>
</g>
<g>
	<polygon class="st0" points="445.54,40.73 381.59,243.22 307.53,243.22 263.03,306.3 251.9,298.97 251.26,298.01 251.01,298.38 
		240.77,291.62 206.2,268.84 213.8,258.09 219.64,249.83 221.39,247.34 255.94,270.12 293.28,217.18 361.64,217.18 409.15,66.76 
		99.44,66.76 90.9,53.75 90.9,40.73 	"/>
</g>
<g>
</g>
<g>
</g>
<g>
</g>
<g>
</g>
<g>
</g>
</svg>
